<svg xmlns="http://www.w3.org/2000/svg" width="128" height="88" viewBox="0 0 128 88"><g transform="translate(0 -20)"><path d="M0,33.284V94.716A5.31,5.31,0,0,0,5.334,100H27V96H5.334A1.311,1.311,0,0,1,4,94.716V33.284A1.311,1.311,0,0,1,5.334,32H27V28H5.334A5.31,5.31,0,0,0,0,33.284Z" fill="#1bcabd"/><path d="M122.667,28H101v4h21.667A1.311,1.311,0,0,1,124,33.284V80H109.164A6.014,6.014,0,0,0,103,85.837V96H91.267l-4.934,4H106l22-17.835V33.284A5.31,5.31,0,0,0,122.667,28ZM105,95.662V85.837A4.015,4.015,0,0,1,109.164,82h12.688Z" fill="#1bcabd"/><path d="M97,26.458A6.489,6.489,0,0,0,90.482,20H37.519A6.489,6.489,0,0,0,31,26.458v75.084A6.49,6.49,0,0,0,37.519,108H70.113L97,86.2ZM70,102.942V90.911A5.015,5.015,0,0,1,75.1,86H90.9ZM93,84H75.1A7.017,7.017,0,0,0,68,90.911V104H37.519A2.492,2.492,0,0,1,35,101.542V26.458A2.492,2.492,0,0,1,37.519,24H90.482A2.491,2.491,0,0,1,93,26.458Z" fill="#1bcabd"/><path d="M75.105,60.555l-7.132-1.086-3.189-6.779C64.567,52.23,64.284,52,64,52s-.567.23-.784.689l-3.189,6.779-7.132,1.086c-.967.146-1.184.846-.484,1.562l5.161,5.275L56.353,74.84c-.12.733.145,1.161.628,1.161a1.36,1.36,0,0,0,.64-.194L64,72.291l6.378,3.516a1.36,1.36,0,0,0,.64.194c.483,0,.748-.429.629-1.161l-1.219-7.448,5.161-5.275C76.29,61.4,76.072,60.7,75.105,60.555ZM69,65.993a2,2,0,0,0-.544,1.722l.854,5.218-4.342-2.394a2,2,0,0,0-1.931,0l-4.344,2.395.854-5.219A2,2,0,0,0,59,65.993l-3.7-3.782,5.026-.765a2,2,0,0,0,1.508-1.126L64,55.722l2.164,4.6a2,2,0,0,0,1.508,1.126l5.026.765Z" fill="#1bcabd"/><path d="M26.292,61.416,20.646,60.6,18.12,55.518c-.171-.346-.4-.518-.62-.518s-.449.172-.621.518L14.354,60.6l-5.646.816c-.765.11-.938.636-.383,1.17l4.085,3.957-.964,5.587c-.095.55.115.87.5.87a1.128,1.128,0,0,0,.508-.146l5.05-2.636,5.049,2.636a1.128,1.128,0,0,0,.507.146c.383,0,.592-.32.5-.87l-.965-5.587,4.085-3.957C27.229,62.052,27.057,61.526,26.292,61.416ZM21.2,65.106a2,2,0,0,0-.579,1.777l.514,2.975-2.706-1.413a2,2,0,0,0-1.851,0l-2.708,1.414.514-2.977a2,2,0,0,0-.579-1.776L11.64,63.013l3-.434a2,2,0,0,0,1.5-1.09L17.5,58.764l1.354,2.726a2,2,0,0,0,1.5,1.09l3,.434Z" fill="#1bcabd"/><path d="M119.292,61.416l-5.647-.816-2.525-5.082c-.171-.346-.4-.518-.62-.518s-.449.172-.621.518L107.354,60.6l-5.646.816c-.765.11-.938.636-.383,1.17l4.086,3.957-.964,5.587c-.095.55.114.87.5.87a1.128,1.128,0,0,0,.508-.146l5.05-2.636,5.049,2.636a1.128,1.128,0,0,0,.508.146c.383,0,.592-.32.5-.87l-.965-5.587,4.085-3.957C120.229,62.052,120.057,61.526,119.292,61.416Zm-5.094,3.69a2,2,0,0,0-.579,1.777l.514,2.975-2.706-1.413a2,2,0,0,0-1.851,0l-2.708,1.414.514-2.977a2,2,0,0,0-.579-1.776l-2.162-2.094,3-.434a2,2,0,0,0,1.5-1.09l1.354-2.726,1.354,2.726a2,2,0,0,0,1.5,1.09l3,.434Z" fill="#1bcabd"/></g></svg>